# xmcd
#
# Track frame offsets:
#	150
#	14709
#	29606
#	44388
#	57700
#	77951
#	91001
#	106974
#	118522
#	130613
#	142383
#	153521
#	165537
#	176022
#	191999
#	203295
#	213572
#	227740
#	241092
#
# Disc length: 3384 seconds
#
# Revision: 0
# Processed by: cddbd v1.5.2PL0 Copyright (c) Steve Scherf et al.
# Submitted via: EasyCDDAExtractor 12.0.1.1
#
DISCID=0e0d3613
DTITLE=Premium Standard - Ballroom Fantasy
DYEAR=2001
DGENRE=Dance
TTITLE0=EW 29 - Theme From 'Sunshine'
TTITLE1=EW 29 - Is It You (Theme From 'Shrek')
TTITLE2=EW 29 - Brothers (Theme From 'Pearl Harbour')
TTITLE3=EW 29 - Photographs
TTITLE4=EW 29 - The Fool
TTITLE5=TG 32 - La Prueba Fácil
TTITLE6=TG 32 - Gadgeto Tango (Theme from 'Inspector Gadget')
TTITLE7=TG 32 - Nostalgia
TTITLE8=WW 60 - Autumn in Paris
TTITLE9=WW 59 - Waltz For The Moon (Theme from 'Final Fantasy')
TTITLE10=WW 60 - Valse Lamorjante (Theme from 'Life is beautiful')
TTITLE11=WW 60 - Valse De Amélie (Main Theme)
TTITLE12=SF 29 - Sam, You Made The Pants Too Long
TTITLE13=SF 28 - Luna
TTITLE14=SF 29 - Fit as a Fiddle
TTITLE15=QS 50 - Ain't What You Do (From 'Swing')
TTITLE16=QS 51 - Go Big Daddy
TTITLE17=QS 51 - Jump Club
TTITLE18=QS 51 - Swing It, Baby!
EXTD=
EXTT0=
EXTT1=
EXTT2=
EXTT3=
EXTT4=
EXTT5=
EXTT6=
EXTT7=
EXTT8=
EXTT9=
EXTT10=
EXTT11=
EXTT12=
EXTT13=
EXTT14=
EXTT15=
EXTT16=
EXTT17=
EXTT18=
PLAYORDER=
